<svg xmlns="http://www.w3.org/2000/svg" width="850" height="205" viewBox="0 0 850 205" role="img" aria-label="Profile views: 34">
  <title>Profile views: 34</title>
  <defs>
    <linearGradient id="azure-mist" x1="0" y1="0" x2="1" y2="0"><stop offset="0" stop-color="#061426" stop-opacity="0"/><stop offset=".22" stop-color="#0B4F8A" stop-opacity=".22"/><stop offset=".5" stop-color="#38BDF8" stop-opacity=".15"/><stop offset=".78" stop-color="#0B4F8A" stop-opacity=".22"/><stop offset="1" stop-color="#061426" stop-opacity="0"/></linearGradient>
    <linearGradient id="digit-stone" x1="0" y1="0" x2="1" y2="1"><stop offset="0" stop-color="#12395E"/><stop offset=".5" stop-color="#071A2F"/><stop offset="1" stop-color="#0B4F8A"/></linearGradient>
    <filter id="element-glow" x="-40%" y="-40%" width="180%" height="180%"><feGaussianBlur stdDeviation="2.5" result="blur"/><feMerge><feMergeNode in="blur"/><feMergeNode in="SourceGraphic"/></feMerge></filter>
  </defs>
  <path d="M18 31C150 8 266 41 410 23S679 8 832 32" fill="none" stroke="#7DD3FC" stroke-opacity=".28"/>
  <rect x="0" y="39" width="850" height="145" rx="30" fill="url(#azure-mist)"/>
  <text x="425" y="22" text-anchor="middle" fill="#BAE6FD" font-family="Verdana,DejaVu Sans,sans-serif" font-size="13" font-weight="800" letter-spacing="4">ELEMENTAL VISITORS</text>
  <g filter="url(#element-glow)"><g transform="translate(34 55)">
    <ellipse cx="50" cy="91" rx="46" ry="13" fill="#38BDF8" opacity=".13"/>
    <circle cx="50" cy="49" r="46" fill="#38BDF8" opacity=".08"><animate attributeName="r" values="42;48;42" dur="4s" begin="0.00s" repeatCount="indefinite"/><animate attributeName="opacity" values=".05;.14;.05" dur="4s" begin="0.00s" repeatCount="indefinite"/></circle>
    <g><path d="M50 5C35 26 24 38 24 57a26 26 0 0 0 52 0C76 38 65 26 50 5Z" fill="#0EA5E9" opacity=".88"/><path d="M31 59c10 8 28 8 38 0M34 69c9 6 23 6 32 0" fill="none" stroke="#E0F2FE" stroke-width="3" stroke-linecap="round"><animate attributeName="d" values="M31 59c10 8 28 8 38 0M34 69c9 6 23 6 32 0;M31 57c11 11 28 11 38 0M34 67c9 8 23 8 32 0;M31 59c10 8 28 8 38 0M34 69c9 6 23 6 32 0" dur="2.8s" repeatCount="indefinite"/></path><circle cx="39" cy="42" r="5" fill="#E0F2FE" opacity=".75"/><animateTransform attributeName="transform" type="translate" values="0 1;0 -3;0 1" dur="3.20s" begin="0.00s" repeatCount="indefinite"/></g>
    <g transform="translate(22 57)"><rect width="56" height="48" rx="11" fill="#061426" stroke="#38BDF8" stroke-width="2"/><rect x="4" y="4" width="48" height="40" rx="8" fill="url(#digit-stone)" stroke="#BAE6FD" stroke-opacity=".25"/><text x="28" y="36" text-anchor="middle" fill="#F0F9FF" font-family="Verdana,DejaVu Sans,sans-serif" font-size="37" font-weight="900">0</text></g>
    <text x="50" y="121" text-anchor="middle" fill="#BAE6FD" font-family="Verdana,DejaVu Sans,sans-serif" font-size="8" font-weight="800" letter-spacing="1.6">WATER</text>
  </g><g transform="translate(146 55)">
    <ellipse cx="50" cy="91" rx="46" ry="13" fill="#2DD4BF" opacity=".13"/>
    <circle cx="50" cy="49" r="46" fill="#2DD4BF" opacity=".08"><animate attributeName="r" values="42;48;42" dur="4s" begin="0.24s" repeatCount="indefinite"/><animate attributeName="opacity" values=".05;.14;.05" dur="4s" begin="0.24s" repeatCount="indefinite"/></circle>
    <g><path d="M45 49h10v45H45Z" fill="#0F766E"/><path d="M50 8 27 40h12L20 65h60L61 40h12Z" fill="#14B8A6"/><path d="M50 16 36 40h11L32 58h36L53 40h11Z" fill="#5EEAD4" opacity=".55"/><path d="M31 91c8-9 15-10 19-3 5-8 12-7 19 3" fill="none" stroke="#99F6E4" stroke-width="3" stroke-linecap="round"><animateTransform attributeName="transform" type="rotate" values="-2 50 94;2 50 94;-2 50 94" dur="4s" repeatCount="indefinite"/></path><animateTransform attributeName="transform" type="translate" values="0 1;0 -3;0 1" dur="3.38s" begin="0.24s" repeatCount="indefinite"/></g>
    <g transform="translate(22 57)"><rect width="56" height="48" rx="11" fill="#061426" stroke="#2DD4BF" stroke-width="2"/><rect x="4" y="4" width="48" height="40" rx="8" fill="url(#digit-stone)" stroke="#99F6E4" stroke-opacity=".25"/><text x="28" y="36" text-anchor="middle" fill="#F0F9FF" font-family="Verdana,DejaVu Sans,sans-serif" font-size="37" font-weight="900">0</text></g>
    <text x="50" y="121" text-anchor="middle" fill="#99F6E4" font-family="Verdana,DejaVu Sans,sans-serif" font-size="8" font-weight="800" letter-spacing="1.6">FOREST</text>
  </g><g transform="translate(258 55)">
    <ellipse cx="50" cy="91" rx="46" ry="13" fill="#60A5FA" opacity=".13"/>
    <circle cx="50" cy="49" r="46" fill="#60A5FA" opacity=".08"><animate attributeName="r" values="42;48;42" dur="4s" begin="0.48s" repeatCount="indefinite"/><animate attributeName="opacity" values=".05;.14;.05" dur="4s" begin="0.48s" repeatCount="indefinite"/></circle>
    <g><path d="M9 82 34 29l14 22 13-31 31 62Z" fill="#1D4ED8" opacity=".9"/><path d="m34 29 9 15-8-3-7 7ZM61 20l10 20-10-5-8 8Z" fill="#DBEAFE"/><path d="M10 82h82M22 91h55" stroke="#93C5FD" stroke-width="4" stroke-linecap="round"/><circle cx="18" cy="70" r="5" fill="#60A5FA"><animate attributeName="cy" values="70;66;70" dur="3s" repeatCount="indefinite"/></circle><animateTransform attributeName="transform" type="translate" values="0 1;0 -3;0 1" dur="3.56s" begin="0.48s" repeatCount="indefinite"/></g>
    <g transform="translate(22 57)"><rect width="56" height="48" rx="11" fill="#061426" stroke="#60A5FA" stroke-width="2"/><rect x="4" y="4" width="48" height="40" rx="8" fill="url(#digit-stone)" stroke="#BFDBFE" stroke-opacity=".25"/><text x="28" y="36" text-anchor="middle" fill="#F0F9FF" font-family="Verdana,DejaVu Sans,sans-serif" font-size="37" font-weight="900">0</text></g>
    <text x="50" y="121" text-anchor="middle" fill="#BFDBFE" font-family="Verdana,DejaVu Sans,sans-serif" font-size="8" font-weight="800" letter-spacing="1.6">EARTH</text>
  </g><g transform="translate(370 55)">
    <ellipse cx="50" cy="91" rx="46" ry="13" fill="#FB923C" opacity=".13"/>
    <circle cx="50" cy="49" r="46" fill="#FB923C" opacity=".08"><animate attributeName="r" values="42;48;42" dur="4s" begin="0.72s" repeatCount="indefinite"/><animate attributeName="opacity" values=".05;.14;.05" dur="4s" begin="0.72s" repeatCount="indefinite"/></circle>
    <g><path d="M53 5c9 19-5 24 4 38 3-12 13-16 12-31 18 17 25 37 14 55-13 24-51 24-65-1C8 47 19 29 36 14c-2 16 3 23 13 29 7-14-5-23 4-38Z" fill="#F97316"><animate attributeName="opacity" values=".78;1;.82;1;.78" dur="1.25s" repeatCount="indefinite"/></path><path d="M51 46c13 12 11 30-1 38-13-8-15-24 1-38Z" fill="#FDE68A"/><animateTransform attributeName="transform" type="translate" values="0 1;0 -3;0 1" dur="3.74s" begin="0.72s" repeatCount="indefinite"/></g>
    <g transform="translate(22 57)"><rect width="56" height="48" rx="11" fill="#061426" stroke="#FB923C" stroke-width="2"/><rect x="4" y="4" width="48" height="40" rx="8" fill="url(#digit-stone)" stroke="#FED7AA" stroke-opacity=".25"/><text x="28" y="36" text-anchor="middle" fill="#F0F9FF" font-family="Verdana,DejaVu Sans,sans-serif" font-size="37" font-weight="900">0</text></g>
    <text x="50" y="121" text-anchor="middle" fill="#FED7AA" font-family="Verdana,DejaVu Sans,sans-serif" font-size="8" font-weight="800" letter-spacing="1.6">FIRE</text>
  </g><g transform="translate(482 55)">
    <ellipse cx="50" cy="91" rx="46" ry="13" fill="#7DD3FC" opacity=".13"/>
    <circle cx="50" cy="49" r="46" fill="#7DD3FC" opacity=".08"><animate attributeName="r" values="42;48;42" dur="4s" begin="0.96s" repeatCount="indefinite"/><animate attributeName="opacity" values=".05;.14;.05" dur="4s" begin="0.96s" repeatCount="indefinite"/></circle>
    <g><path d="M9 31h58c20 0 20-21 5-23-9-1-15 4-17 10M7 52h79c17 0 17 21 2 23-10 2-17-5-18-13M17 76h39" fill="none" stroke="#BAE6FD" stroke-width="5" stroke-linecap="round" stroke-dasharray="120"><animate attributeName="stroke-dashoffset" values="120;0;-120" dur="3.4s" repeatCount="indefinite"/></path><path d="M26 17c10-8 19-5 18 3-1 7-10 11-18-3ZM76 82c-9 8-18 5-17-3 1-7 9-11 17 3Z" fill="#38BDF8" opacity=".8"><animateTransform attributeName="transform" type="translate" values="-4 0;5 -3;-4 0" dur="3s" repeatCount="indefinite"/></path><animateTransform attributeName="transform" type="translate" values="0 1;0 -3;0 1" dur="3.92s" begin="0.96s" repeatCount="indefinite"/></g>
    <g transform="translate(22 57)"><rect width="56" height="48" rx="11" fill="#061426" stroke="#7DD3FC" stroke-width="2"/><rect x="4" y="4" width="48" height="40" rx="8" fill="url(#digit-stone)" stroke="#E0F2FE" stroke-opacity=".25"/><text x="28" y="36" text-anchor="middle" fill="#F0F9FF" font-family="Verdana,DejaVu Sans,sans-serif" font-size="37" font-weight="900">0</text></g>
    <text x="50" y="121" text-anchor="middle" fill="#E0F2FE" font-family="Verdana,DejaVu Sans,sans-serif" font-size="8" font-weight="800" letter-spacing="1.6">WIND</text>
  </g><g transform="translate(594 55)">
    <ellipse cx="50" cy="91" rx="46" ry="13" fill="#A78BFA" opacity=".13"/>
    <circle cx="50" cy="49" r="46" fill="#A78BFA" opacity=".08"><animate attributeName="r" values="42;48;42" dur="4s" begin="1.20s" repeatCount="indefinite"/><animate attributeName="opacity" values=".05;.14;.05" dur="4s" begin="1.20s" repeatCount="indefinite"/></circle>
    <g><path d="M24 37c1-13 11-23 25-23 8-14 31-12 36 4 13 1 21 10 20 22-1 12-11 20-25 20H29C14 60 4 51 5 40c1-10 8-17 19-18" fill="#60A5FA"/><path d="m54 43-16 29h15l-8 25 31-39H60l11-15Z" fill="#FDE047"><animate attributeName="opacity" values="1;.35;1;1;.55;1" dur="1.7s" repeatCount="indefinite"/></path><circle cx="25" cy="71" r="3" fill="#A78BFA"><animate attributeName="cy" values="67;84;67" dur="1.8s" repeatCount="indefinite"/></circle><circle cx="83" cy="69" r="3" fill="#7DD3FC"><animate attributeName="cy" values="69;88;69" dur="2.2s" repeatCount="indefinite"/></circle><animateTransform attributeName="transform" type="translate" values="0 1;0 -3;0 1" dur="4.10s" begin="1.20s" repeatCount="indefinite"/></g>
    <g transform="translate(22 57)"><rect width="56" height="48" rx="11" fill="#061426" stroke="#A78BFA" stroke-width="2"/><rect x="4" y="4" width="48" height="40" rx="8" fill="url(#digit-stone)" stroke="#DDD6FE" stroke-opacity=".25"/><text x="28" y="36" text-anchor="middle" fill="#F0F9FF" font-family="Verdana,DejaVu Sans,sans-serif" font-size="37" font-weight="900">3</text></g>
    <text x="50" y="121" text-anchor="middle" fill="#DDD6FE" font-family="Verdana,DejaVu Sans,sans-serif" font-size="8" font-weight="800" letter-spacing="1.6">STORM</text>
  </g><g transform="translate(706 55)">
    <ellipse cx="50" cy="91" rx="46" ry="13" fill="#67E8F9" opacity=".13"/>
    <circle cx="50" cy="49" r="46" fill="#67E8F9" opacity=".08"><animate attributeName="r" values="42;48;42" dur="4s" begin="1.44s" repeatCount="indefinite"/><animate attributeName="opacity" values=".05;.14;.05" dur="4s" begin="1.44s" repeatCount="indefinite"/></circle>
    <g><g stroke="#CFFAFE" stroke-width="4" stroke-linecap="round" transform="translate(50 50)"><path d="M0-42V42M-37-21 37 21M-37 21 37-21M0-42l-8 10M0-42l8 10M0 42l-8-10M0 42l8-10M-37-21l13 2M-37-21l5 12M37 21l-13-2M37 21l-5-12"/><circle r="11" fill="#22D3EE" stroke="#E0F2FE"/></g><path d="M19 86 9 96M83 9 92 1" stroke="#67E8F9" stroke-width="3" stroke-linecap="round"/><animateTransform attributeName="transform" type="translate" values="0 1;0 -3;0 1" dur="4.28s" begin="1.44s" repeatCount="indefinite"/></g>
    <g transform="translate(22 57)"><rect width="56" height="48" rx="11" fill="#061426" stroke="#67E8F9" stroke-width="2"/><rect x="4" y="4" width="48" height="40" rx="8" fill="url(#digit-stone)" stroke="#CFFAFE" stroke-opacity=".25"/><text x="28" y="36" text-anchor="middle" fill="#F0F9FF" font-family="Verdana,DejaVu Sans,sans-serif" font-size="37" font-weight="900">4</text></g>
    <text x="50" y="121" text-anchor="middle" fill="#CFFAFE" font-family="Verdana,DejaVu Sans,sans-serif" font-size="8" font-weight="800" letter-spacing="1.6">ICE</text>
  </g></g>
  <path d="M40 187C170 171 285 199 425 183S688 172 810 188" fill="none" stroke="#38BDF8" stroke-opacity=".22" stroke-width="2"/>
</svg>